<?xml version="1.0" encoding="UTF-8" standalone="no"?>
<!-- Created with Inkscape (http://www.inkscape.org/) -->

<svg
   width="149mm"
   height="237mm"
   viewBox="0 0 149 237"
   version="1.1"
   id="svg1"
   xml:space="preserve"
   inkscape:version="1.3.2 (091e20e, 2023-11-25, custom)"
   sodipodi:docname="10a200p.svg"
   xmlns:inkscape="http://www.inkscape.org/namespaces/inkscape"
   xmlns:sodipodi="http://sodipodi.sourceforge.net/DTD/sodipodi-0.dtd"
   xmlns="http://www.w3.org/2000/svg"
   xmlns:svg="http://www.w3.org/2000/svg"><sodipodi:namedview
     id="namedview1"
     pagecolor="#ffffff"
     bordercolor="#000000"
     borderopacity="0.25"
     inkscape:showpageshadow="2"
     inkscape:pageopacity="0.0"
     inkscape:pagecheckerboard="0"
     inkscape:deskcolor="#d1d1d1"
     inkscape:document-units="mm"
     inkscape:zoom="0.56390993"
     inkscape:cx="341.36657"
     inkscape:cy="426.48655"
     inkscape:window-width="1600"
     inkscape:window-height="829"
     inkscape:window-x="-8"
     inkscape:window-y="-8"
     inkscape:window-maximized="1"
     inkscape:current-layer="layer1" /><defs
     id="defs1"><rect
       x="307.61258"
       y="-46.394028"
       width="496.65884"
       height="198.58101"
       id="rect5" /></defs><g
     inkscape:label="Слой 1"
     inkscape:groupmode="layer"
     id="layer1"><rect
       style="fill:#ffffff;stroke-width:0.264583"
       id="rect1"
       width="175.00948"
       height="252.42654"
       x="-13.606634"
       y="-7.9763031" /><text
       xml:space="preserve"
       transform="matrix(0.26458333,0,0,0.26458333,-67.826393,29.377509)"
       id="text5"
       style="font-size:74.6667px;font-family:Bahnschrift;-inkscape-font-specification:Bahnschrift;text-align:center;white-space:pre;shape-inside:url(#rect5);display:inline;fill:#e00000;fill-opacity:1;stroke:#000000;stroke-width:2;stroke-opacity:1"
       inkscape:label="Описание"><tspan
         x="362.54906"
         y="22.220085"
         id="tspan3"><tspan
           style="fill:#000000;stroke:none"
           id="tspan1">№10а 200м 
</tspan></tspan><tspan
         x="363.16885"
         y="115.55346"
         id="tspan8"><tspan
           style="fill:#000000;stroke:none"
           id="tspan7">Прицел - П</tspan></tspan></text><path
       style="fill:#008000;stroke:#000000;stroke-width:0.264583"
       d="m 10.729753,167.1483 v -36.36256 h 15.366114 v -20.52725 h 34.485782 v 8.79739 L 85.918141,103.39652 V 82.721094 h 33.720819 v 20.569766 h 16.75441 v 63.82435 z"
       id="path5" /><g
       id="g5"
       transform="translate(-25.556634,68.338221)"
       inkscape:label="Прицел"><path
         style="fill:#000000;fill-opacity:1;stroke:none;stroke-width:0.529167"
         d="m 43.76335,147.30103 v -30.68771 h 48.299797 v 14.67673 h 13.876183 l 0.13342,-14.54331 47.63267,0.13343 0.13342,30.42086 z"
         id="path1"
         sodipodi:nodetypes="ccccccccc" /><path
         style="fill:#000000;fill-opacity:1;stroke:none;stroke-width:0.529167"
         d="m 95.932465,131.82375 v -15.21043 h 6.137555 v 15.47728 z"
         id="path2"
         sodipodi:nodetypes="ccccc" /></g><ellipse
       style="fill:#e00000;fill-opacity:1;stroke:#000000;stroke-width:0.644271;stroke-opacity:1"
       id="path4"
       cx="74.15712"
       cy="141.74892"
       rx="4.0786185"
       ry="4.2120433"
       inkscape:label="Точка" /><path
       style="fill:#00e025;stroke-width:1.77333"
       d="m 42.559988,562.14651 v -67.38665 h 28.373326 28.373325 v -38.12665 -38.12666 h 63.839981 63.83998 v 15.96 c 0,10.71855 0.66068,15.95999 2.01171,15.95999 1.10643,0 23.45043,-13.26271 49.65332,-29.47269 l 47.64161,-29.4727 v -38.80062 -38.80062 h 62.06665 62.06665 v 39.01333 39.01332 h 31.91999 31.91999 v 118.8133 118.8133 H 278.41326 42.559988 Z M 289.15148,551.45395 c 4.01323,-2.14782 8.76844,-10.68156 8.76844,-15.73593 0,-9.52198 -8.61276,-17.90483 -18.39587,-17.90483 -6.29311,0 -14.96948,7.97507 -16.28077,14.9648 -1.2283,6.54745 2.48435,15.58749 7.63328,18.58646 4.04701,2.35717 13.94714,2.40565 18.27492,0.0895 z"
       id="path3"
       transform="scale(0.26458333)" /></g></svg>
