<?xml version="1.0" encoding="UTF-8" standalone="no"?>
<!-- Created with Inkscape (http://www.inkscape.org/) -->

<svg
   width="210mm"
   height="297mm"
   viewBox="0 0 210 297"
   version="1.1"
   id="svg1"
   xml:space="preserve"
   inkscape:version="1.3.2 (091e20e, 2023-11-25, custom)"
   sodipodi:docname="target10a.svg"
   xmlns:inkscape="http://www.inkscape.org/namespaces/inkscape"
   xmlns:sodipodi="http://sodipodi.sourceforge.net/DTD/sodipodi-0.dtd"
   xmlns="http://www.w3.org/2000/svg"
   xmlns:svg="http://www.w3.org/2000/svg"><sodipodi:namedview
     id="namedview1"
     pagecolor="#ffffff"
     bordercolor="#000000"
     borderopacity="0.25"
     inkscape:showpageshadow="2"
     inkscape:pageopacity="0.0"
     inkscape:pagecheckerboard="0"
     inkscape:deskcolor="#d1d1d1"
     inkscape:document-units="mm"
     inkscape:zoom="0.56390993"
     inkscape:cx="341.36657"
     inkscape:cy="426.48655"
     inkscape:window-width="1600"
     inkscape:window-height="829"
     inkscape:window-x="-8"
     inkscape:window-y="-8"
     inkscape:window-maximized="1"
     inkscape:current-layer="layer1" /><defs
     id="defs1"><rect
       x="307.61258"
       y="-46.394028"
       width="496.65884"
       height="198.58101"
       id="rect5" /></defs><g
     inkscape:label="Слой 1"
     inkscape:groupmode="layer"
     id="layer1"><text
       xml:space="preserve"
       transform="matrix(0.26458333,0,0,0.26458333,-39.674734,26.093149)"
       id="text5"
       style="font-size:74.6667px;font-family:Bahnschrift;-inkscape-font-specification:Bahnschrift;text-align:center;white-space:pre;shape-inside:url(#rect5);display:inline;fill:#e00000;fill-opacity:1;stroke:#000000;stroke-width:2;stroke-opacity:1"
       inkscape:label="Описание"><tspan
         x="360.59854"
         y="22.220085"
         id="tspan4"><tspan
           style="fill:#000000;stroke:none"
           id="tspan2">№10а 400м 
</tspan></tspan><tspan
         x="363.16885"
         y="115.55346"
         id="tspan6"><tspan
           style="fill:#000000;stroke:none"
           id="tspan5">Прицел - П</tspan></tspan></text><path
       style="fill:#00e025;stroke-width:0.467461;stroke:#000000;stroke-opacity:1"
       d="M 38.976963,146.04208 V 127.8446 h 7.727316 7.727315 v -10.26524 -10.26524 h 17.327923 17.32792 v 4.19941 c 0,3.93355 0.06128,4.19942 0.967893,4.19942 0.895876,0 4.217846,-2.11804 4.57392,-2.91626 0.08586,-0.19247 0.351451,-0.34996 0.590208,-0.34996 0.238755,0 1.53835,-0.77539 2.887986,-1.72309 4.673666,-3.28181 6.338486,-4.34273 6.814766,-4.34273 0.26315,0 0.5487,-0.16167 0.63456,-0.35927 0.17471,-0.40208 5.01355,-3.65276 7.18094,-4.82407 l 1.40497,-0.75928 0.12603,-10.326861 0.12605,-10.32684 h 16.85064 16.85064 v 10.26524 10.265251 h 8.42979 8.4298 v 31.96224 31.96225 H 101.9663 38.976963 Z"
       id="path3"
       inkscape:label="10а" /><g
       id="g5"
       transform="translate(3.533414,37.371396)"
       inkscape:label="Прицел"><path
         style="fill:#000000;fill-opacity:1;stroke:none;stroke-width:0.529167"
         d="m 43.76335,147.30103 v -30.68771 h 48.299797 v 14.67673 h 13.876183 l 0.13342,-14.54331 47.63267,0.13343 0.13342,30.42086 z"
         id="path1"
         sodipodi:nodetypes="ccccccccc" /><path
         style="fill:#000000;fill-opacity:1;stroke:none;stroke-width:0.529167"
         d="m 95.932465,131.82375 v -15.21043 h 6.137555 v 15.47728 z"
         id="path2"
         sodipodi:nodetypes="ccccc" /></g><ellipse
       style="fill:#e00000;fill-opacity:1;stroke:#000000;stroke-width:0.644271;stroke-opacity:1"
       id="path4"
       cx="102.30878"
       cy="136.11859"
       rx="4.0786185"
       ry="4.2120433"
       inkscape:label="Точка" /></g></svg>
