<?xml version="1.0" encoding="UTF-8" standalone="no"?>
<!-- Created with Inkscape (http://www.inkscape.org/) -->

<svg
   width="152mm"
   height="191mm"
   viewBox="0 0 152 191"
   version="1.1"
   id="svg1"
   xml:space="preserve"
   inkscape:version="1.3.2 (091e20e, 2023-11-25, custom)"
   sodipodi:docname="10a4004.svg"
   xmlns:inkscape="http://www.inkscape.org/namespaces/inkscape"
   xmlns:sodipodi="http://sodipodi.sourceforge.net/DTD/sodipodi-0.dtd"
   xmlns="http://www.w3.org/2000/svg"
   xmlns:svg="http://www.w3.org/2000/svg"><sodipodi:namedview
     id="namedview1"
     pagecolor="#ffffff"
     bordercolor="#000000"
     borderopacity="0.25"
     inkscape:showpageshadow="2"
     inkscape:pageopacity="0.0"
     inkscape:pagecheckerboard="0"
     inkscape:deskcolor="#d1d1d1"
     inkscape:document-units="mm"
     inkscape:zoom="0.56390995"
     inkscape:cx="194.17994"
     inkscape:cy="352.00656"
     inkscape:window-width="1600"
     inkscape:window-height="829"
     inkscape:window-x="-8"
     inkscape:window-y="-8"
     inkscape:window-maximized="1"
     inkscape:current-layer="layer1" /><defs
     id="defs1"><rect
       x="307.61258"
       y="-46.394028"
       width="496.65884"
       height="198.58101"
       id="rect5" /></defs><g
     inkscape:label="Слой 1"
     inkscape:groupmode="layer"
     id="layer1"><rect
       style="fill:#ffffff;stroke-width:0.264583"
       id="rect1"
       width="159.99525"
       height="197.0616"
       x="-3.7535543"
       y="-2.3459716" /><path
       style="fill:#008000;stroke:#000000;stroke-width:0.264583"
       d="m 11.847157,166.09479 v -36.36256 h 15.366114 v -20.52725 h 34.485781 v 8.79739 L 87.035541,102.34301 V 81.667577 h 33.720819 v 20.569773 h 16.75441 v 63.82435 z"
       id="path5" /><text
       xml:space="preserve"
       transform="matrix(0.26458333,0,0,0.26458333,-66.888003,27.969926)"
       id="text5"
       style="font-size:74.6667px;font-family:Bahnschrift;-inkscape-font-specification:Bahnschrift;text-align:center;white-space:pre;shape-inside:url(#rect5);display:inline;fill:#e00000;fill-opacity:1;stroke:#000000;stroke-width:2;stroke-opacity:1"
       inkscape:label="Описание"><tspan
         x="360.59854"
         y="22.220085"
         id="tspan3"><tspan
           style="fill:#000000;stroke:none"
           id="tspan1">№10а 400м 
</tspan></tspan><tspan
         x="367.27042"
         y="115.55346"
         id="tspan8"><tspan
           style="fill:#000000;stroke:none"
           id="tspan7">Прицел - 4</tspan></tspan></text><g
       id="g5"
       transform="translate(-23.679855,27.518315)"
       inkscape:label="Прицел"><path
         style="fill:#000000;fill-opacity:1;stroke:none;stroke-width:0.529167"
         d="m 43.76335,147.30103 v -30.68771 h 48.299797 v 14.67673 h 13.876183 l 0.13342,-14.54331 47.63267,0.13343 0.13342,30.42086 z"
         id="path1"
         sodipodi:nodetypes="ccccccccc" /><path
         style="fill:#000000;fill-opacity:1;stroke:none;stroke-width:0.529167"
         d="m 95.932465,131.82375 v -15.21043 h 6.137555 v 15.47728 z"
         id="path2"
         sodipodi:nodetypes="ccccc" /></g><ellipse
       style="fill:#e00000;fill-opacity:1;stroke:#000000;stroke-width:0.644271;stroke-opacity:1"
       id="path4"
       cx="75.095505"
       cy="137.99536"
       rx="4.0786185"
       ry="4.2120433"
       inkscape:label="Точка" /><path
       style="fill:#00e025;stroke-width:1.77333"
       d="m 46.106652,558.59983 v -67.38665 h 29.259991 29.259987 v -39.01332 -39.01332 h 63.83998 63.83998 v 16.84666 c 0,9.26566 0.4693,16.84666 1.0429,16.84666 0.57359,0 22.51858,-13.25438 48.76665,-29.45418 l 47.72376,-29.45417 v -38.81914 -38.81913 h 62.95331 62.95331 v 39.01332 39.01332 h 31.03333 31.03332 v 118.8133 118.81329 H 505.43313 493.0531 l -0.47663,-40.34332 -0.47662,-40.34332 -90.88331,-0.45943 -90.8833,-0.45944 v 27.50276 27.50276 h -6.20667 -6.20666 v -27.48666 -27.48666 h -12.41333 -12.41333 v 27.48666 27.48666 h -7.09333 -7.09333 V 571.89982 544.41316 H 166.69328 74.479977 v 40.78666 40.78665 H 60.293315 46.106652 Z M 292.69813,537.26727 c 4.01323,-2.14782 8.76844,-10.68156 8.76844,-15.73593 0,-9.52198 -8.61276,-17.90483 -18.39586,-17.90483 -6.29311,0 -14.96948,7.97507 -16.28077,14.9648 -1.2283,6.54745 2.48435,15.58749 7.63327,18.58646 4.04701,2.35717 13.94714,2.40565 18.27492,0.0895 z"
       id="path3"
       transform="scale(0.26458333)" /></g></svg>
