<?xml version="1.0" encoding="UTF-8" standalone="no"?>
<!-- Created with Inkscape (http://www.inkscape.org/) -->

<svg
   width="133mm"
   height="134mm"
   viewBox="0 0 133 134"
   version="1.1"
   id="svg1"
   inkscape:version="1.3.2 (091e20e, 2023-11-25, custom)"
   sodipodi:docname="117507.svg"
   xml:space="preserve"
   xmlns:inkscape="http://www.inkscape.org/namespaces/inkscape"
   xmlns:sodipodi="http://sodipodi.sourceforge.net/DTD/sodipodi-0.dtd"
   xmlns="http://www.w3.org/2000/svg"
   xmlns:svg="http://www.w3.org/2000/svg"><sodipodi:namedview
     id="namedview1"
     pagecolor="#ffffff"
     bordercolor="#000000"
     borderopacity="0.25"
     inkscape:showpageshadow="2"
     inkscape:pageopacity="0.0"
     inkscape:pagecheckerboard="0"
     inkscape:deskcolor="#d1d1d1"
     inkscape:document-units="mm"
     showguides="true"
     inkscape:zoom="0.70710678"
     inkscape:cx="164.75588"
     inkscape:cy="342.94679"
     inkscape:window-width="1600"
     inkscape:window-height="829"
     inkscape:window-x="-8"
     inkscape:window-y="-8"
     inkscape:window-maximized="1"
     inkscape:current-layer="layer1"><sodipodi:guide
       position="149.89782,205.08856"
       orientation="1,0"
       id="guide6"
       inkscape:locked="false" /><sodipodi:guide
       position="118.94631,24.494954"
       orientation="0,-1"
       id="guide7"
       inkscape:locked="false" /><sodipodi:guide
       position="49.99901,129.57875"
       orientation="1,0"
       id="guide8"
       inkscape:locked="false" /><sodipodi:guide
       position="99.99908,97.725403"
       orientation="1,0"
       id="guide9"
       inkscape:locked="false" /><sodipodi:guide
       position="18.942481,84.993701"
       orientation="0,-1"
       id="guide10"
       inkscape:locked="false" /></sodipodi:namedview><defs
     id="defs1"><rect
       x="307.61258"
       y="-46.394028"
       width="436.04651"
       height="134.00819"
       id="rect5" /><rect
       x="307.61258"
       y="-46.394028"
       width="436.04651"
       height="134.00819"
       id="rect12" /></defs><g
     inkscape:label="Layer 1"
     inkscape:groupmode="layer"
     id="layer1"><rect
       style="fill:#ffffff;fill-opacity:1;stroke:none;stroke-width:0.247969"
       id="rect13"
       width="136.9489"
       height="136.57474"
       x="-1.8708863"
       y="-0.37417755" /><circle
       id="path1"
       style="fill:#000000;stroke:#000000;stroke-width:0.264583"
       cx="33.936981"
       cy="36.214222"
       r="0.048185274" /><path
       style="fill:#008000;stroke:#000000;stroke-width:0.207403"
       d="m 19.473394,91.471495 0.106396,-20.89879 0.612491,-0.57881 c 0.336871,-0.31835 0.863213,-0.88968 1.169648,-1.26963 0.306437,-0.37995 0.964479,-1.07774 1.462318,-1.55064 0.497836,-0.47291 0.905159,-0.95797 0.905159,-1.07793 0,-0.11995 0.14364,-0.2181 0.319201,-0.2181 0.17556,0 0.319201,-0.0878 0.319201,-0.19517 0,-0.10734 0.263342,-0.4604 0.585203,-0.78457 0.321861,-0.32417 0.992184,-0.99772 1.489606,-1.49679 0.497422,-0.49906 0.904403,-0.95021 0.904403,-1.00255 0,-0.0524 0.441148,-0.53879 0.980331,-1.08101 0.539182,-0.54222 1.520726,-1.57973 2.181209,-2.30558 0.660483,-0.72585 1.607858,-1.70323 2.105282,-2.17196 0.497421,-0.46873 0.904402,-0.89643 0.904402,-0.95043 0,-0.054 0.226442,-0.3303 0.503204,-0.61397 l 0.503203,-0.51577 H 64.66477 c 24.818804,0 30.140134,0.0471 30.140134,0.26676 0,0.14672 0.21545,0.458 0.4788,0.69175 0.51253,0.45492 2.29972,2.37608 3.99754,4.29718 0.24564,0.27794 0.847176,0.92598 1.336736,1.44008 0.48958,0.5141 1.41682,1.50545 2.06055,2.20299 0.6437,0.69754 1.43373,1.5246 1.7556,1.83791 0.32186,0.31331 0.5852,0.6181 0.5852,0.67732 0,0.0592 0.53284,0.63081 1.18409,1.2702 0.65125,0.63939 1.34221,1.41268 1.53549,1.71842 0.19327,0.30574 0.4744,0.55589 0.62472,0.55589 0.15031,0 0.27331,0.0975 0.27331,0.21658 0,0.11912 0.14364,0.35303 0.31921,0.51979 0.27959,0.2656 0.31919,2.88454 0.31919,21.10939 v 20.806175 l -44.954172,10e-6 -44.954179,3e-5 z"
       id="path3" /><circle
       id="path2"
       style="fill:#000000;stroke:#000000;stroke-width:0.264583"
       cx="76.623978"
       cy="40.917049"
       r="0.048185274" /><ellipse
       style="fill:#e00000;fill-opacity:1;stroke:#000000;stroke-width:0.644271;stroke-opacity:1"
       id="path4"
       cx="66.080986"
       cy="80.264244"
       rx="4.0786185"
       ry="4.2120433"
       inkscape:transform-center-x="-0.2668497"
       inkscape:transform-center-y="-0.2668497" /><g
       id="g5"
       transform="translate(-32.573633,-25.967949)"><path
         style="fill:#000000;fill-opacity:1;stroke:none;stroke-width:0.529167"
         d="m 43.76335,147.30103 v -30.68771 h 48.299797 v 14.67673 h 13.876183 l 0.13342,-14.54331 47.63267,0.13343 0.13342,30.42086 z"
         id="path1-7"
         sodipodi:nodetypes="ccccccccc" /><path
         style="fill:#000000;fill-opacity:1;stroke:none;stroke-width:0.529167"
         d="m 95.932465,131.82375 v -15.21043 h 6.137555 v 15.47728 z"
         id="path2-9"
         sodipodi:nodetypes="ccccc" /></g><text
       xml:space="preserve"
       transform="matrix(0.26458333,0,0,0.26458333,-70.05956,23.741907)"
       id="text5"
       style="font-size:48px;font-family:Bahnschrift;-inkscape-font-specification:Bahnschrift;text-align:center;white-space:pre;shape-inside:url(#rect5);shape-padding:1.00857;display:inline;fill:#e00000;fill-opacity:1;stroke:#000000;stroke-width:2;stroke-opacity:1"><tspan
         x="402.37793"
         y="-1.2773438"
         id="tspan9"><tspan
           style="font-weight:bold;font-family:Arial;-inkscape-font-specification:'Arial Bold';fill:#000000;stroke:none"
           id="tspan3">№11 750м 
</tspan></tspan><tspan
         x="400.94824"
         y="59.595818"
         id="tspan11"><tspan
           style="font-weight:bold;font-family:Arial;-inkscape-font-specification:'Arial Bold';fill:#000000;stroke:none"
           id="tspan10">Прицел - 7 </tspan></tspan></text><circle
       id="circle1"
       style="fill:#000000;stroke:#000000;stroke-width:0.264583"
       cx="33.936981"
       cy="36.214222"
       r="0.048185274" /><path
       style="fill:#008000;stroke:#000000;stroke-width:0.207403"
       d="m 19.473394,91.471495 0.106396,-20.89879 0.612491,-0.57881 c 0.336871,-0.31835 0.863213,-0.88968 1.169648,-1.26963 0.306437,-0.37995 0.964479,-1.07774 1.462318,-1.55064 0.497836,-0.47291 0.905159,-0.95797 0.905159,-1.07793 0,-0.11995 0.14364,-0.2181 0.319201,-0.2181 0.17556,0 0.319201,-0.0878 0.319201,-0.19517 0,-0.10734 0.263342,-0.4604 0.585203,-0.78457 0.321861,-0.32417 0.992184,-0.99772 1.489606,-1.49679 0.497422,-0.49906 0.904403,-0.95021 0.904403,-1.00255 0,-0.0524 0.441148,-0.53879 0.980331,-1.08101 0.539182,-0.54222 1.520726,-1.57973 2.181209,-2.30558 0.660483,-0.72585 1.607858,-1.70323 2.105282,-2.17196 0.497421,-0.46873 0.904402,-0.89643 0.904402,-0.95043 0,-0.054 0.226442,-0.3303 0.503204,-0.61397 l 0.503203,-0.51577 H 64.66477 c 24.818804,0 30.140134,0.0471 30.140134,0.26676 0,0.14672 0.21545,0.458 0.4788,0.69175 0.51253,0.45492 2.29972,2.37608 3.99754,4.29718 0.24564,0.27794 0.847176,0.92598 1.336736,1.44008 0.48958,0.5141 1.41682,1.50545 2.06055,2.20299 0.6437,0.69754 1.43373,1.5246 1.7556,1.83791 0.32186,0.31331 0.5852,0.6181 0.5852,0.67732 0,0.0592 0.53284,0.63081 1.18409,1.2702 0.65125,0.63939 1.34221,1.41268 1.53549,1.71842 0.19327,0.30574 0.4744,0.55589 0.62472,0.55589 0.15031,0 0.27331,0.0975 0.27331,0.21658 0,0.11912 0.14364,0.35303 0.31921,0.51979 0.27959,0.2656 0.31919,2.88454 0.31919,21.10939 v 20.806175 l -44.954172,10e-6 -44.954179,3e-5 z"
       id="path5" /><circle
       id="circle5"
       style="fill:#000000;stroke:#000000;stroke-width:0.264583"
       cx="76.623978"
       cy="40.917049"
       r="0.048185274" /><ellipse
       style="fill:#e00000;fill-opacity:1;stroke:#000000;stroke-width:0.644271;stroke-opacity:1"
       id="ellipse5"
       cx="66.080986"
       cy="80.264244"
       rx="4.0786185"
       ry="4.2120433"
       inkscape:transform-center-x="-0.2668497"
       inkscape:transform-center-y="-0.2668497" /><g
       id="g7"
       transform="translate(-32.573633,-25.967949)"><path
         style="fill:#000000;fill-opacity:1;stroke:none;stroke-width:0.529167"
         d="m 43.76335,147.30103 v -30.68771 h 48.299797 v 14.67673 h 13.876183 l 0.13342,-14.54331 47.63267,0.13343 0.13342,30.42086 z"
         id="path6"
         sodipodi:nodetypes="ccccccccc" /><path
         style="fill:#000000;fill-opacity:1;stroke:none;stroke-width:0.529167"
         d="m 95.932465,131.82375 v -15.21043 h 6.137555 v 15.47728 z"
         id="path7"
         sodipodi:nodetypes="ccccc" /></g><text
       xml:space="preserve"
       transform="matrix(0.26458333,0,0,0.26458333,-70.05956,23.741907)"
       id="text12"
       style="font-size:48px;font-family:Bahnschrift;-inkscape-font-specification:Bahnschrift;text-align:center;white-space:pre;shape-inside:url(#rect12);shape-padding:1.00857;display:inline;fill:#e00000;fill-opacity:1;stroke:#000000;stroke-width:2;stroke-opacity:1"><tspan
         x="402.37793"
         y="-1.2773438"
         id="tspan14"><tspan
           style="font-weight:bold;font-family:Arial;-inkscape-font-specification:'Arial Bold';fill:#000000;stroke:none"
           id="tspan12">№11 750м 
</tspan></tspan><tspan
         x="400.94824"
         y="59.595818"
         id="tspan16"><tspan
           style="font-weight:bold;font-family:Arial;-inkscape-font-specification:'Arial Bold';fill:#000000;stroke:none"
           id="tspan15">Прицел - 7 </tspan></tspan></text><path
       style="fill:#00e025;stroke-width:1.41421"
       d="M 224.85996,369.81685 V 342.23968 H 149.90664 74.953319 v -37.36324 -37.36325 l 27.930721,-29.72923 27.93071,-29.72923 111.76175,-0.0827 c 94.20993,-0.0697 112.21081,0.23185 114.62104,1.92004 2.28698,1.60187 29.56168,30.54444 50.61647,53.71168 l 3.72214,4.0956 v 37.27015 37.27015 H 344.361 277.18586 v 27.57717 27.57716 h -7.07107 -7.07107 v -27.57716 -27.57717 h -12.02081 -12.02082 v 27.57717 27.57716 h -7.07107 -7.07106 z M 258.9455,317.7984 c 6.8228,-4.58337 9.59372,-12.87337 6.77674,-20.27472 -2.4733,-6.49837 -9.7523,-11.85254 -16.11355,-11.85254 -6.59125,0 -13.79302,5.40806 -15.96068,11.98542 -5.22848,15.86478 11.65438,29.30688 25.29749,20.14184 z"
       id="path8"
       transform="scale(0.26458333)" /></g></svg>
