<?xml version="1.0" encoding="UTF-8" standalone="no"?>
<!-- Created with Inkscape (http://www.inkscape.org/) -->

<svg
   width="210mm"
   height="297mm"
   viewBox="0 0 210 297"
   version="1.1"
   id="svg1"
   xml:space="preserve"
   inkscape:version="1.3.2 (091e20e, 2023-11-25, custom)"
   sodipodi:docname="9200p.svg"
   xmlns:inkscape="http://www.inkscape.org/namespaces/inkscape"
   xmlns:sodipodi="http://sodipodi.sourceforge.net/DTD/sodipodi-0.dtd"
   xmlns="http://www.w3.org/2000/svg"
   xmlns:svg="http://www.w3.org/2000/svg"><sodipodi:namedview
     id="namedview1"
     pagecolor="#ffffff"
     bordercolor="#000000"
     borderopacity="0.25"
     inkscape:showpageshadow="2"
     inkscape:pageopacity="0.0"
     inkscape:pagecheckerboard="0"
     inkscape:deskcolor="#d1d1d1"
     inkscape:document-units="mm"
     inkscape:zoom="0.56390993"
     inkscape:cx="211.91327"
     inkscape:cy="499.1932"
     inkscape:window-width="1600"
     inkscape:window-height="829"
     inkscape:window-x="-8"
     inkscape:window-y="-8"
     inkscape:window-maximized="1"
     inkscape:current-layer="layer1" /><defs
     id="defs1"><rect
       x="307.61258"
       y="-46.394028"
       width="496.65884"
       height="198.58101"
       id="rect5" /></defs><g
     inkscape:label="Слой 1"
     inkscape:groupmode="layer"
     id="layer1"><path
       style="fill:#00ff00;stroke:#000000;stroke-width:0.143862;stroke-opacity:1"
       d="m 56.372991,188.30945 v -15.81767 h 6.552875 c 6.33734,0 6.557575,-0.009 6.695788,-0.28996 0.07859,-0.15947 0.142916,-0.53051 0.142916,-0.8245 0,-0.29402 0.06212,-0.53454 0.138057,-0.53454 0.07958,0 0.138058,-0.4694 0.138058,-1.10828 0,-0.81982 0.05111,-1.1296 0.196306,-1.19011 0.136375,-0.0569 0.220151,-0.4393 0.2744,-1.2528 0.203854,-3.05701 0.250003,-3.4946 0.368546,-3.4946 0.06994,0 0.127151,-0.53246 0.127151,-1.18326 0,-0.91347 0.04721,-1.20291 0.207087,-1.26951 0.154144,-0.0642 0.207086,-0.33092 0.207086,-1.04306 0,-0.52622 0.05974,-1.15235 0.132779,-1.39137 0.07304,-0.23904 0.186703,-1.37522 0.252604,-2.52486 0.07792,-1.35929 0.176323,-2.1107 0.281393,-2.14872 0.104012,-0.0377 0.161569,-0.45447 0.161569,-1.1703 0,-0.6413 0.05841,-1.11184 0.138056,-1.11184 0.08121,0 0.138056,-0.5247 0.138056,-1.27425 0,-1.03271 0.03925,-1.27425 0.207089,-1.27425 0.165521,0 0.207084,-0.22385 0.207084,-1.11545 0,-0.61352 0.06212,-1.1572 0.138059,-1.20816 0.07593,-0.0508 0.138058,-0.2573 0.138058,-0.45855 0,-0.20127 0.06213,-0.36594 0.138056,-0.36594 0.08181,0 0.138058,-0.54967 0.138058,-1.3492 0,-1.07156 0.04073,-1.3492 0.197919,-1.3492 0.153444,0 0.215487,-0.33686 0.276116,-1.49909 l 0.156392,-2.99821 c 0.04301,-0.8245 0.136198,-1.49912 0.207086,-1.49912 0.07091,0 0.128891,-0.39753 0.128891,-0.88341 0,-0.64698 0.05542,-0.90651 0.207086,-0.96971 0.160291,-0.0668 0.207087,-0.35836 0.207087,-1.2903 0,-0.70268 0.05747,-1.20396 0.138056,-1.20396 0.08979,0 0.138057,-2.14478 0.138057,-6.13449 v -6.13447 l 1.069946,-0.0983 c 0.588471,-0.0542 4.036457,-0.12819 7.662192,-0.16462 l 6.592246,-0.0662 v -4.71934 -4.71935 h 4.064548 c 2.560781,0 4.096116,0.0555 4.149873,0.14992 0.05549,0.0974 3.234263,0.14991 9.085433,0.1499 l 9.00012,-1e-5 0.031,5.95895 c 0.0171,3.27741 0.0657,7.89842 0.10763,10.26887 l 0.0765,4.30993 h 7.17486 7.17485 v 0.52938 c 0,0.33228 0.0771,0.56153 0.20709,0.6157 0.1613,0.0671 0.20707,0.36436 0.20707,1.34447 0,0.73884 0.0571,1.25822 0.13806,1.25822 0.0818,0 0.13807,0.54965 0.13807,1.34917 0,0.79954 0.0562,1.3492 0.13806,1.3492 0.0806,0 0.13803,0.50125 0.13803,1.20397 0,0.93195 0.0468,1.22349 0.2071,1.2903 0.16375,0.0683 0.20709,0.38102 0.20709,1.4944 0,0.8388 0.0558,1.4081 0.13806,1.4081 0.0804,0 0.13805,0.4997 0.13805,1.1993 0,0.96607 0.0402,1.19926 0.20708,1.19926 0.16784,0 0.2071,0.24152 0.2071,1.27424 0,0.74955 0.0568,1.27424 0.13806,1.27424 0.0819,0 0.13805,0.54969 0.13805,1.34921 0,0.79949 0.0562,1.34915 0.13806,1.34915 0.0813,0 0.13805,0.52629 0.13805,1.27896 0,0.99855 0.0455,1.29787 0.20708,1.36524 0.15877,0.0663 0.20769,0.35367 0.20956,1.23207 6.8e-4,0.63017 0.067,1.75289 0.14587,2.49495 0.0788,0.74207 0.18778,1.94278 0.24201,2.6683 0.0542,0.72551 0.16973,1.36687 0.25672,1.42524 0.087,0.0584 0.19248,0.64532 0.23445,1.30431 0.042,0.65902 0.1559,2.50224 0.25317,4.09613 0.14922,2.44501 0.21463,2.92788 0.41846,3.08968 0.16382,0.12999 0.24159,0.39479 0.24159,0.82222 0,0.34675 0.0644,0.76094 0.14293,0.92042 0.13827,0.28054 0.36003,0.28995 6.83384,0.28995 h 6.69094 v 15.6651 15.66507 l -37.58615,0.0738 c -20.67239,0.0407 -41.701997,0.10933 -46.732467,0.15258 l -9.14631,0.0788 z"
       id="path20" /><text
       xml:space="preserve"
       transform="matrix(0.26458333,0,0,0.26458333,-39.674734,26.093149)"
       id="text5"
       style="font-size:74.6667px;font-family:Bahnschrift;-inkscape-font-specification:Bahnschrift;text-align:center;white-space:pre;shape-inside:url(#rect5);display:inline;fill:#e00000;fill-opacity:1;stroke:#000000;stroke-width:2;stroke-opacity:1"
       inkscape:label="Описание"><tspan
         x="396.27304"
         y="22.220085"
         id="tspan4"><tspan
           style="fill:#000000;stroke:none"
           id="tspan2">№9 200м 
</tspan></tspan><tspan
         x="363.16885"
         y="115.55346"
         id="tspan6"><tspan
           style="fill:#000000;stroke:none"
           id="tspan5">Прицел - П</tspan></tspan></text><g
       id="g5"
       transform="translate(4.3343788,78.646683)"
       inkscape:label="Прицел"><path
         style="fill:#000000;fill-opacity:1;stroke:none;stroke-width:0.529167"
         d="m 43.76335,147.30103 v -30.68771 h 48.299797 v 14.67673 h 13.876183 l 0.13342,-14.54331 47.63267,0.13343 0.13342,30.42086 z"
         id="path1"
         sodipodi:nodetypes="ccccccccc" /><path
         style="fill:#000000;fill-opacity:1;stroke:none;stroke-width:0.529167"
         d="m 95.932465,131.82375 v -15.21043 h 6.137555 v 15.47728 z"
         id="path2"
         sodipodi:nodetypes="ccccc" /></g><ellipse
       style="fill:#e00000;fill-opacity:1;stroke:#000000;stroke-width:0.644271;stroke-opacity:1"
       id="path4"
       cx="103.35612"
       cy="162.51161"
       rx="4.0786185"
       ry="4.2120433"
       inkscape:label="Точка" /></g></svg>
