<?xml version="1.0" encoding="UTF-8" standalone="no"?>
<!-- Created with Inkscape (http://www.inkscape.org/) -->

<svg
   width="143mm"
   height="233mm"
   viewBox="0 0 143 233"
   version="1.1"
   id="svg1"
   xml:space="preserve"
   inkscape:version="1.3.2 (091e20e, 2023-11-25, custom)"
   sodipodi:docname="9300p.svg"
   xmlns:inkscape="http://www.inkscape.org/namespaces/inkscape"
   xmlns:sodipodi="http://sodipodi.sourceforge.net/DTD/sodipodi-0.dtd"
   xmlns="http://www.w3.org/2000/svg"
   xmlns:svg="http://www.w3.org/2000/svg"><sodipodi:namedview
     id="namedview1"
     pagecolor="#ffffff"
     bordercolor="#000000"
     borderopacity="0.25"
     inkscape:showpageshadow="2"
     inkscape:pageopacity="0.0"
     inkscape:pagecheckerboard="0"
     inkscape:deskcolor="#d1d1d1"
     inkscape:document-units="mm"
     inkscape:zoom="0.56390993"
     inkscape:cx="84.23331"
     inkscape:cy="511.60653"
     inkscape:window-width="1600"
     inkscape:window-height="829"
     inkscape:window-x="-8"
     inkscape:window-y="-8"
     inkscape:window-maximized="1"
     inkscape:current-layer="layer1" /><defs
     id="defs1"><rect
       x="307.61258"
       y="-46.394028"
       width="496.65884"
       height="198.58101"
       id="rect5" /></defs><g
     inkscape:label="Слой 1"
     inkscape:groupmode="layer"
     id="layer1"><rect
       style="fill:#ffffff;stroke-width:0.195191"
       id="rect1"
       width="151.59888"
       height="239.62215"
       x="-3.9812458"
       y="-3.3177049" /><path
       style="fill:#008000;stroke:#000000;stroke-width:0.264583"
       d="m 24.729624,203.64651 v -31.69995 h 13.25474 l 5.54648,-39.35962 v -12.10962 h 15.42733 v -9.45546 h 26.209867 l 0.24882,20.5283 h 14.26613 l 5.266859,40.51747 h 13.29606 v 31.31495 z"
       id="path3" /><text
       xml:space="preserve"
       transform="matrix(0.26458333,0,0,0.26458333,-71.110753,26.093149)"
       id="text5"
       style="font-size:74.6667px;font-family:Bahnschrift;-inkscape-font-specification:Bahnschrift;text-align:center;white-space:pre;shape-inside:url(#rect5);display:inline;fill:#e00000;fill-opacity:1;stroke:#000000;stroke-width:2;stroke-opacity:1"
       inkscape:label="Описание"><tspan
         x="395.81731"
         y="22.220085"
         id="tspan4"><tspan
           style="fill:#000000;stroke:none"
           id="tspan2">№9 300м 
</tspan></tspan><tspan
         x="363.16885"
         y="115.55346"
         id="tspan6"><tspan
           style="fill:#000000;stroke:none"
           id="tspan5">Прицел - П</tspan></tspan></text><g
       id="g5"
       transform="translate(-27.10164,71.163153)"
       inkscape:label="Прицел"><path
         style="fill:#000000;fill-opacity:1;stroke:none;stroke-width:0.529167"
         d="m 43.76335,147.30103 v -30.68771 h 48.299797 v 14.67673 h 13.876183 l 0.13342,-14.54331 47.63267,0.13343 0.13342,30.42086 z"
         id="path1"
         sodipodi:nodetypes="ccccccccc" /><path
         style="fill:#000000;fill-opacity:1;stroke:none;stroke-width:0.529167"
         d="m 95.932465,131.82375 v -15.21043 h 6.137555 v 15.47728 z"
         id="path2"
         sodipodi:nodetypes="ccccc" /></g><ellipse
       style="fill:#e00000;fill-opacity:1;stroke:#000000;stroke-width:0.644271;stroke-opacity:1"
       id="path4"
       cx="71.92009"
       cy="163.9192"
       rx="4.0786185"
       ry="4.2120433"
       inkscape:label="Точка" /><path
       style="fill:#00e025;stroke-width:1.77333"
       d="M 246.49327,736.8198 V 709.33314 H 170.23995 93.986641 v -29.25999 -29.26 h 25.412219 25.41221 l 10.98083,-78.46997 c 7.75112,-55.39018 10.96914,-83.81615 10.94111,-96.64664 l -0.0397,-18.17667 h 28.37332 28.37333 v -18.61999 -18.62 h 48.76665 48.76665 v 39.01333 39.01332 h 27.48666 c 15.11767,0 27.48666,0.65301 27.48666,1.45114 0,2.07329 17.42654,136.41536 18.73195,144.40549 l 1.08647,6.64999 h 24.67078 24.67078 v 29.26 29.25999 h -73.59331 -73.59331 v 27.48666 27.48666 h -7.09333 -7.09333 V 736.8198 709.33314 H 271.31993 258.9066 v 27.48666 27.48666 h -6.20667 -6.20666 z m 37.96902,-105.64938 c 7.76372,-9.22666 5.25712,-22.28737 -5.23275,-27.26513 -7.46573,-3.54273 -9.38345,-3.45543 -16.26474,0.7403 -6.56008,3.99987 -9.55766,12.35512 -7.33827,20.45424 2.10116,7.66768 7.66496,11.52666 16.61888,11.52666 6.33849,0 8.40095,-0.9211 12.21688,-5.45607 z"
       id="path5"
       transform="scale(0.26458333)" /></g></svg>
