<?xml version="1.0" encoding="UTF-8" standalone="no"?>
<!-- Created with Inkscape (http://www.inkscape.org/) -->

<svg
   width="129mm"
   height="180mm"
   viewBox="0 0 129 180"
   version="1.1"
   id="svg1"
   xml:space="preserve"
   inkscape:version="1.3.2 (091e20e, 2023-11-25, custom)"
   sodipodi:docname="94004.svg"
   xmlns:inkscape="http://www.inkscape.org/namespaces/inkscape"
   xmlns:sodipodi="http://sodipodi.sourceforge.net/DTD/sodipodi-0.dtd"
   xmlns="http://www.w3.org/2000/svg"
   xmlns:svg="http://www.w3.org/2000/svg"><sodipodi:namedview
     id="namedview1"
     pagecolor="#ffffff"
     bordercolor="#000000"
     borderopacity="0.25"
     inkscape:showpageshadow="2"
     inkscape:pageopacity="0.0"
     inkscape:pagecheckerboard="0"
     inkscape:deskcolor="#d1d1d1"
     inkscape:document-units="mm"
     inkscape:zoom="0.56390993"
     inkscape:cx="220.77994"
     inkscape:cy="419.39322"
     inkscape:window-width="1600"
     inkscape:window-height="829"
     inkscape:window-x="-8"
     inkscape:window-y="-8"
     inkscape:window-maximized="1"
     inkscape:current-layer="layer1" /><defs
     id="defs1"><rect
       x="307.61258"
       y="-46.394028"
       width="496.65884"
       height="198.58101"
       id="rect5" /></defs><g
     inkscape:label="Слой 1"
     inkscape:groupmode="layer"
     id="layer1"><rect
       style="fill:#ffffff;stroke-width:0.264583"
       id="rect1"
       width="132.78198"
       height="185.33176"
       x="-1.407583"
       y="-1.8767772" /><path
       style="fill:#008000;stroke:#000000;stroke-width:0.264583"
       d="m 18.000498,169.76834 v -31.69995 h 13.25474 l 5.54648,-39.359626 v -12.10962 h 15.42733 v -9.45546 h 26.20987 l 0.24882,20.5283 h 14.26613 l 5.26686,40.517476 h 13.296062 v 31.31495 z"
       id="path3" /><text
       xml:space="preserve"
       transform="matrix(0.26458333,0,0,0.26458333,-79.087056,25.623955)"
       id="text5"
       style="font-size:74.6667px;font-family:Bahnschrift;-inkscape-font-specification:Bahnschrift;text-align:center;white-space:pre;shape-inside:url(#rect5);display:inline;fill:#e00000;fill-opacity:1;stroke:#000000;stroke-width:2;stroke-opacity:1"
       inkscape:label="Описание"><tspan
         x="394.32251"
         y="22.220085"
         id="tspan4"><tspan
           style="fill:#000000;stroke:none"
           id="tspan2">№9 400м 
</tspan></tspan><tspan
         x="367.27042"
         y="115.55346"
         id="tspan6"><tspan
           style="fill:#000000;stroke:none"
           id="tspan5">Прицел - 4</tspan></tspan></text><g
       id="g5"
       transform="translate(-34.803096,15.044415)"
       inkscape:label="Прицел"><path
         style="fill:#000000;fill-opacity:1;stroke:none;stroke-width:0.529167"
         d="m 43.76335,147.30103 v -30.68771 h 48.299797 v 14.67673 h 13.876183 l 0.13342,-14.54331 47.63267,0.13343 0.13342,30.42086 z"
         id="path1"
         sodipodi:nodetypes="ccccccccc" /><path
         style="fill:#000000;fill-opacity:1;stroke:none;stroke-width:0.529167"
         d="m 95.932465,131.82375 v -15.21043 h 6.137555 v 15.47728 z"
         id="path2"
         sodipodi:nodetypes="ccccc" /></g><ellipse
       style="fill:#e00000;fill-opacity:1;stroke:#000000;stroke-width:0.644271;stroke-opacity:1"
       id="path4"
       cx="64.412979"
       cy="126.16574"
       rx="4.0786185"
       ry="4.2120433"
       inkscape:label="Точка" /><path
       style="fill:#00e025;stroke-width:1.77333"
       d="M 216.34661,524.01986 V 496.5332 h -46.64268 -46.64268 l 8.46312,-59.84999 c 6.71716,-47.50276 8.47404,-64.88033 8.51602,-84.23331 l 0.0529,-24.38332 h 29.26 29.25999 v -17.73333 -17.73333 h 47.65832 47.65832 l 1.10833,5.54166 c 0.60959,3.04792 1.10833,20.60392 1.10833,39.01333 v 33.47165 h 27.05523 27.05524 l 7.66428,59.84999 c 4.21535,32.91749 8.10647,61.72303 8.64691,64.01231 l 0.98266,4.16233 -49.44549,-0.61566 -49.44548,-0.61567 -0.48953,27.04333 -0.48952,27.04332 h -6.16047 -6.16048 V 524.01986 496.5332 H 242.9466 230.53327 v 27.48666 27.48665 h -7.09333 -7.09333 z m 35.6309,-32.00494 c 9.98551,-5.1637 11.78789,-19.26907 3.51883,-27.53812 -6.96882,-6.96882 -15.7642,-7.08584 -23.06815,-0.30693 -7.91813,7.34894 -8.02265,17.64176 -0.258,25.4064 5.85624,5.85624 11.78653,6.58637 19.80732,2.43865 z"
       id="path5"
       transform="scale(0.26458333)" /></g></svg>
